<?xml version="1.0" encoding="iso-8859-1"?>
<!-- Uploaded to: SVG Repo, www.svgrepo.com, Generator: SVG Repo Mixer Tools -->
<svg height="800px" width="800px" version="1.1" id="Layer_1" xmlns="http://www.w3.org/2000/svg" xmlns:xlink="http://www.w3.org/1999/xlink" 
	 viewBox="0 0 512.001 512.001" xml:space="preserve">
<g>
	<circle style="fill:#E6E6E6;" cx="82.085" cy="372.744" r="48.648"/>
	<circle style="fill:#E6E6E6;" cx="256.006" cy="372.744" r="48.648"/>
	<circle style="fill:#E6E6E6;" cx="429.91" cy="372.744" r="48.648"/>
</g>
<path style="fill:#F95428;" d="M356.757,494.548c0-40.405,32.754-73.158,73.159-73.158s73.158,32.754,73.158,73.158"/>
<path style="fill:#2BA5F7;" d="M8.927,494.548c0-40.405,32.754-73.158,73.159-73.158s73.158,32.754,73.158,73.158"/>
<path style="fill:#F7B239;" d="M182.841,494.548c0-40.405,32.754-73.158,73.158-73.158s73.158,32.754,73.158,73.158"/>
<path style="fill:#B3B3B3;" d="M290.068,183.038v10.355c0,15.985-12.962,28.934-28.946,28.934h-10.248
	c-15.985,0-28.934-12.95-28.934-28.934v-10.355H290.068z"/>
<path style="fill:#F7B239;" d="M328.191,89.641c0,19.555-7.772,37.29-20.4,50.287c-11.248,11.581-17.722,26.959-17.722,43.11
	h-68.129c0-16.175-6.534-31.553-17.782-43.17c-12.39-12.771-20.091-30.113-20.341-49.252c-0.524-39.646,31.493-72.604,71.14-73.151
	C295.305,16.894,328.191,49.423,328.191,89.641z"/>
<g>
	<path style="fill:#333333;" d="M463.344,419.582c14.605-10.454,24.147-27.55,24.147-46.84c0-31.747-25.828-57.575-57.575-57.575
		s-57.575,25.828-57.575,57.575c0,19.296,9.548,36.397,24.16,46.849c-28.652,12.822-48.671,41.591-48.671,74.958
		c0,4.93,3.997,8.927,8.927,8.927c4.93,0,8.927-3.997,8.927-8.927c0-35.418,28.814-64.232,64.232-64.232
		s64.232,28.814,64.232,64.232c0,4.93,3.997,8.927,8.927,8.927c4.93,0,8.927-3.997,8.927-8.927
		C512,461.184,491.991,432.406,463.344,419.582z M429.916,333.02c21.903,0,39.721,17.819,39.721,39.721
		s-17.819,39.721-39.721,39.721s-39.721-17.819-39.721-39.721S408.013,333.02,429.916,333.02z"/>
	<path style="fill:#333333;" d="M312.952,31.882c-15.58-15.363-36.24-23.668-58.116-23.346
		c-44.673,0.627-80.537,37.503-79.946,82.201c0.275,20.771,8.391,40.427,22.854,55.35c9.843,10.156,15.263,23.277,15.263,36.947
		v10.353c0,20.883,16.989,37.872,37.872,37.872h10.242c20.883,0,37.872-16.989,37.872-37.872v-10.354
		c0-13.69,5.4-26.791,15.206-36.888c14.779-15.219,22.919-35.285,22.919-56.502C337.118,67.761,328.536,47.249,312.952,31.882z
		 M261.122,213.407H250.88c-11.038,0-20.018-8.98-20.018-20.018v-1.426h50.279v1.426C281.14,204.427,272.16,213.407,261.122,213.407
		z M301.392,133.709c-10.923,11.248-17.722,25.346-19.661,40.4h-16.804v-51.468l26.419-26.419c3.486-3.486,3.486-9.139,0-12.624
		c-3.486-3.486-9.139-3.486-12.624,0L256,106.321l-22.721-22.723c-3.486-3.486-9.139-3.486-12.624,0
		c-3.486,3.486-3.486,9.139,0,12.624l26.419,26.419v51.468h-16.806c-1.945-15.039-8.759-29.153-19.703-40.446
		c-11.279-11.638-17.607-26.966-17.822-43.161c-0.461-34.863,27.507-63.625,62.345-64.114c0.306-0.004,0.612-0.006,0.918-0.006
		c16.738,0,32.479,6.447,44.412,18.214c12.155,11.984,18.847,27.983,18.847,45.05C319.264,106.191,312.917,121.84,301.392,133.709z"
		/>
	<path style="fill:#333333;" d="M111.278,302.67c-2.284,0-4.569-0.871-6.312-2.615c-3.486-3.486-3.486-9.139,0-12.624l53.558-53.558
		c3.486-3.486,9.139-3.486,12.624,0c3.486,3.486,3.486,9.139,0,12.624l-53.558,53.558
		C115.847,301.799,113.562,302.67,111.278,302.67z"/>
	<path style="fill:#333333;" d="M400.723,302.67c-2.284,0-4.569-0.871-6.312-2.615l-53.558-53.558
		c-3.486-3.486-3.486-9.139,0-12.624c3.486-3.486,9.139-3.486,12.624,0l53.558,53.558c3.486,3.486,3.486,9.139,0,12.624
		C405.293,301.799,403.007,302.67,400.723,302.67z"/>
	<path style="fill:#333333;" d="M256,304.456c-4.93,0-8.927-3.997-8.927-8.927v-34.074c0-4.93,3.997-8.927,8.927-8.927
		s8.927,3.997,8.927,8.927v34.074C264.927,300.459,260.93,304.456,256,304.456z"/>
	<circle style="fill:#333333;" cx="409.545" cy="352.724" r="8.927"/>
	<circle style="fill:#333333;" cx="442.276" cy="352.724" r="8.927"/>
	<path style="fill:#333333;" d="M289.429,419.582c14.605-10.454,24.147-27.55,24.147-46.84c0-31.747-25.828-57.575-57.575-57.575
		s-57.575,25.828-57.575,57.575c0,19.296,9.548,36.397,24.16,46.849c-28.652,12.822-48.671,41.591-48.671,74.958
		c0,4.93,3.997,8.927,8.927,8.927c4.93,0,8.927-3.997,8.927-8.927c0-35.418,28.814-64.232,64.232-64.232
		s64.232,28.814,64.232,64.232c0,4.93,3.997,8.927,8.927,8.927s8.927-3.997,8.927-8.927
		C338.085,461.184,318.076,432.406,289.429,419.582z M256,333.02c21.903,0,39.721,17.819,39.721,39.721S277.903,412.463,256,412.463
		s-39.721-17.819-39.721-39.721S234.099,333.02,256,333.02z"/>
	<circle style="fill:#333333;" cx="239.64" cy="352.724" r="8.927"/>
	<circle style="fill:#333333;" cx="272.372" cy="352.724" r="8.927"/>
	<path style="fill:#333333;" d="M0,494.548c0,4.93,3.997,8.927,8.927,8.927s8.927-3.997,8.927-8.927
		c0-35.418,28.814-64.232,64.232-64.232s64.232,28.814,64.232,64.232c0,4.93,3.997,8.927,8.927,8.927s8.927-3.997,8.927-8.927
		c0-33.367-20.018-62.135-48.671-74.958c14.612-10.453,24.16-27.553,24.16-46.849c0-31.747-25.828-57.575-57.575-57.575
		S24.51,340.994,24.51,372.741c0,19.29,9.542,36.388,24.147,46.84C20.009,432.406,0,461.184,0,494.548z M121.807,372.741
		c0,21.903-17.819,39.721-39.721,39.721s-39.721-17.819-39.721-39.721s17.819-39.721,39.721-39.721S121.807,350.839,121.807,372.741
		z"/>
	<circle style="fill:#333333;" cx="102.455" cy="352.724" r="8.927"/>
	<circle style="fill:#333333;" cx="69.724" cy="352.724" r="8.927"/>
</g>
</svg>