<?xml version="1.0" encoding="iso-8859-1"?>
<!-- Uploaded to: SVG Repo, www.svgrepo.com, Generator: SVG Repo Mixer Tools -->
<svg height="800px" width="800px" version="1.1" id="Layer_1" xmlns="http://www.w3.org/2000/svg" xmlns:xlink="http://www.w3.org/1999/xlink" 
	 viewBox="0 0 393.309 393.309" xml:space="preserve">
<circle style="fill:#FBD303;" cx="196.655" cy="196.655" r="196.655"/>
<circle style="fill:#FFE6D2;" cx="196.655" cy="285.543" r="94.836"/>
<path style="fill:#4485C5;" d="M318.061,148.752c-2.327,0.453-4.461,1.358-6.335,2.65c-17.584-6.788-40.663,34.651-51.394,56.372
	c-3.749,7.758-11.572,12.606-20.17,12.606h-86.949c-8.598,0-16.356-4.848-20.17-12.606c-10.731-21.657-33.875-63.224-51.394-56.372
	c-1.875-1.293-4.008-2.198-6.335-2.65c6.335-17.972,25.535-45.123,81.519-4.913l35.491-98.78c1.422,0.388,2.974,0.646,4.525,0.646
	c1.487,0,2.909-0.194,4.202-0.582l35.491,98.586C292.461,103.628,311.725,130.78,318.061,148.752z"/>
<circle style="fill:#F0582F;" cx="196.655" cy="304.55" r="30.448"/>
<path style="fill:#FFFFFC;" d="M196.719,374.303c-20.17,0-39.24-9.891-51.071-26.44c-2.263-3.168-3.168-7.046-2.457-10.796
	c0.646-3.879,2.715-7.176,5.883-9.438c2.457-1.745,5.43-2.715,8.404-2.715c4.719,0,9.115,2.263,11.83,6.077
	c6.335,8.857,16.614,14.222,27.345,14.222c10.796,0,20.687-5.172,27.216-14.222c2.715-3.814,7.176-6.077,11.83-6.077
	c3.038,0,5.947,0.905,8.404,2.715c6.594,4.719,8.016,13.77,3.426,20.299C235.766,364.412,216.76,374.303,196.719,374.303z"/>
<g>
	<path style="fill:#414753;" d="M196.719,364.283c-16.937,0-32.97-8.339-42.861-22.238c-1.487-2.004-1.034-4.848,1.099-6.271
		c2.004-1.487,4.848-1.034,6.271,1.099c8.21,11.507,21.463,18.489,35.556,18.489c14.158,0,26.958-6.723,35.362-18.489
		c1.487-2.004,4.267-2.457,6.271-1.099c2.004,1.487,2.457,4.267,1.099,6.271C229.495,356.008,213.527,364.283,196.719,364.283z"/>
	<circle style="fill:#414753;" cx="153.083" cy="258.392" r="14.158"/>
	<circle style="fill:#414753;" cx="240.226" cy="258.392" r="14.158"/>
</g>
<g>
	<circle style="fill:#F0582F;" cx="196.784" cy="29.35" r="16.356"/>
	<circle style="fill:#F0582F;" cx="72.339" cy="164.913" r="16.356"/>
	<circle style="fill:#F0582F;" cx="320.97" cy="164.913" r="16.356"/>
</g>
</svg>